# Blender 4.3.2
# www.blender.org
mtllib treeTri.mtl
o Tree_lp_11
v -0.524753 -0.707811 -1.375330
v -1.530720 -0.666692 -0.246043
v -0.906262 -0.661508 1.114650
v 0.545834 -0.691875 1.430580
v 1.428380 -0.731081 0.229593
v 1.003760 -0.742633 -1.234560
v 0.786882 2.829260 -1.292080
v 0.634320 3.398030 -0.788073
v 0.981512 3.479440 -0.078913
v 1.523780 2.912260 0.091951
v 1.676340 2.343490 -0.412051
v 1.329150 2.262090 -1.121210
v 2.590350 4.581570 -2.364060
v 2.284990 4.935220 -1.789590
v 2.618920 4.925010 -1.150150
v 3.307150 4.689200 -1.056970
v 3.579860 4.277480 -1.608760
v 3.190570 4.189310 -2.209740
v 3.548730 7.474690 -3.085660
v 3.179140 7.782060 -2.584871
v 3.457590 7.915910 -1.985291
v 4.129530 7.825920 -1.853911
v 4.467040 7.431500 -2.314750
v 4.167410 7.240170 -2.887950
v 4.610620 9.715500 -4.610961
v 4.329670 10.026100 -4.189471
v 4.618490 10.377800 -3.758961
v 5.193200 10.151200 -3.649341
v 5.446400 9.759160 -4.017121
v 5.230610 9.621720 -4.588951
v 5.329910 12.149400 -6.046781
v 4.943740 12.432300 -5.755641
v 5.132160 12.758100 -5.329721
v 5.682000 12.785100 -5.243671
v 6.062160 12.605600 -5.614061
v 5.874570 12.265500 -6.029011
v 4.504820 14.467399 -8.187001
v 4.190170 14.551299 -7.822421
v 4.296360 14.864499 -7.420801
v 4.812380 14.913899 -7.377231
v 5.123650 14.842199 -7.747291
v 4.972290 14.692899 -8.222091
v 3.999850 17.357000 -8.289581
v 3.732230 17.426500 -7.970262
v 3.860470 17.549601 -7.588881
v 4.278850 17.547899 -7.502331
v 4.541640 17.412100 -7.803892
v 4.417470 17.344900 -8.200251
v -1.329990 3.068750 -0.363729
v -1.557590 2.543650 0.157999
v -1.274460 2.487970 0.896637
v -0.713633 3.032170 1.078560
v -0.486032 3.557270 0.556835
v -0.769166 3.612950 -0.181802
v -3.138910 4.920410 0.608952
v -3.543690 4.654590 1.163260
v -3.187250 4.579370 1.797950
v -2.559700 4.895340 1.933270
v -2.198220 5.250730 1.399600
v -2.478520 5.168480 0.728617
v -3.691650 8.117520 0.828337
v -4.081530 7.963370 1.407449
v -3.818570 7.919170 2.027159
v -3.129580 8.041240 2.173199
v -2.739530 7.954450 1.580349
v -3.002480 7.980610 0.959612
v -3.087320 11.035200 1.064619
v -3.436060 10.948400 1.535759
v -3.286270 11.120200 2.132839
v -2.662830 11.013000 2.195569
v -2.315400 10.936300 1.721709
v -2.462250 11.130300 1.130719
v -3.489960 13.907800 1.064089
v -3.903330 13.803100 1.447929
v -3.713470 13.767100 1.993289
v -3.181150 13.896200 2.108929
v -2.832850 14.172500 1.746219
v -2.995990 14.138000 1.192179
v -4.001330 8.772710 1.053099
v -3.139230 8.379410 1.169739
v -4.347070 8.116940 0.904419
v -3.490630 7.643380 1.013119
v -4.509920 8.039980 1.638749
v -3.674430 7.559710 1.818709
v -4.164180 8.695760 1.787439
v -3.323030 8.295740 1.975329
v -5.390950 9.677380 0.666910
v -5.902130 9.282610 0.442940
v -6.108930 9.229530 1.092339
v -5.728770 9.774410 1.253229
v -6.740640 11.394800 0.568837
v -7.101490 10.946100 0.356537
v -7.233380 10.779900 0.932313
v -6.873310 11.229100 1.144609
v -7.698760 11.911300 0.443551
v -8.103240 11.531600 0.251495
v -8.099200 11.299600 0.790801
v -7.822750 11.773200 1.000529
v -8.462850 12.801900 1.272499
v -8.957310 12.591700 1.140859
v -8.885890 12.211700 1.536379
v -8.430990 12.471000 1.714649
v -2.282270 5.845530 1.045590
v -2.876720 5.105140 0.686232
v -2.543280 5.761850 1.811720
v -3.177360 4.992410 1.528080
v -1.915180 5.268740 1.967910
v -2.499430 4.422570 1.693880
v -1.654170 5.352410 1.201790
v -2.198790 4.535300 0.852030
v -0.650002 6.838950 1.476789
v -0.894234 6.868030 2.013720
v -0.728117 6.313870 2.132489
v -0.483885 6.284790 1.595559
v 0.312135 7.163610 2.203969
v 0.029874 7.210880 2.691339
v 0.133727 6.659950 2.763000
v 0.567266 6.700040 2.402610
v 0.973660 7.646140 2.844500
v 0.635033 7.686971 3.249959
v 0.953424 7.389781 3.551700
v 1.233680 7.273690 3.117280
v 1.420080 8.488070 2.842569
v 1.216640 8.654760 3.269609
v 1.634470 8.520950 3.512619
v 1.854460 8.401750 3.077949
v 1.639620 9.845560 2.500489
v 1.460760 9.790220 2.973659
v 1.911640 9.934580 3.160229
v 2.077110 9.721420 2.728809
v 1.546870 11.202700 2.464669
v 1.405540 11.017200 2.879369
v 1.810290 11.174100 3.074059
v 1.943630 11.013400 2.646589
v -2.157290 7.185500 2.142869
v -2.350350 6.720390 2.454190
v -1.803450 6.613220 2.654020
v -1.610390 7.078330 2.342700
v -2.264120 7.842260 3.280720
v -2.449260 7.371231 3.518049
v -1.918090 7.237640 3.629750
v -1.758310 7.758171 3.503320
v -2.583990 8.108590 4.301620
v -2.742870 7.629281 4.452579
v -2.333560 7.592620 4.782559
v -2.136770 8.032920 4.570010
v -3.146790 8.669650 4.830750
v -3.446360 8.459360 5.171679
v -3.077540 8.479610 5.508969
v -2.776630 8.685940 5.166790
v -3.171570 9.939490 4.857309
v -3.477140 9.779420 5.207869
v -3.151460 9.895890 5.557509
v -2.817270 9.929850 5.198279
v -3.732800 11.181200 5.021109
v -3.904730 10.845600 5.352049
v -3.698580 11.144100 5.698599
v -3.366310 11.045600 5.335799
v 5.748000 11.647500 -6.086371
v 5.568240 11.786500 -4.978641
v 5.793190 11.014200 -6.000041
v 5.624710 11.067300 -4.907531
v 5.170740 10.953400 -6.139601
v 4.915580 10.998300 -5.041611
v 5.125550 11.586700 -6.225941
v 4.859110 11.717600 -5.112721
v 6.015640 11.463399 -7.149821
v 6.053980 10.878899 -7.038031
v 5.461970 10.845099 -7.101011
v 5.460790 11.385199 -7.353791
v 6.279010 10.930799 -8.182391
v 6.174750 10.464999 -7.867341
v 5.738330 10.355299 -8.220301
v 5.711310 10.925699 -8.251481
v 6.893220 10.654899 -9.064081
v 6.860410 10.133299 -9.010900
v 6.503520 10.111799 -9.395831
v 6.475040 10.636199 -9.381541
v 7.621430 10.737399 -9.753951
v 7.902820 10.300699 -9.896531
v 7.504260 10.339799 -10.256901
v 7.634720 10.862099 -10.277901
v 8.966240 11.028099 -9.919791
v 9.259740 10.645999 -9.983391
v 9.043980 10.678299 -10.417601
v 9.053870 11.162599 -10.378401
v 1.856140 12.673000 2.967199
v -4.107290 12.485100 5.390699
v 10.846600 20.303200 -5.814362
v 6.873220 24.213499 -4.222742
v 5.909520 18.568501 -3.318801
v 8.060060 15.638199 -7.835391
v 2.364550 16.665400 -7.492831
v 1.631040 21.965200 -5.260091
v 9.619360 24.771900 -9.297992
v 10.352900 19.472099 -11.530702
v 6.074390 22.868797 -13.472002
v 5.110690 17.223801 -12.568101
v 1.137340 21.134100 -10.976501
v 3.923850 25.799101 -8.955432
v -8.090400 21.510099 5.794979
v -0.851714 21.036800 6.864859
v -3.502640 25.404100 1.604988
v -4.994370 14.990801 7.091479
v 1.506830 14.855700 3.702779
v 2.428770 21.291500 0.311943
v -9.283670 22.057301 -1.419172
v -6.925120 15.876200 -4.581252
v -10.205600 15.621500 1.971659
v -4.274190 11.508900 0.678615
v 0.313567 15.403000 -3.511371
v -2.782460 21.922199 -4.807871
v -12.044300 16.722300 6.658238
v -10.864900 19.272200 2.910269
v -14.061900 15.871500 2.517499
v -12.727500 12.307900 5.248869
v -11.970300 12.129500 0.629856
v -10.819100 16.433701 -0.815481
v -7.554560 17.810400 5.884388
v -8.705710 13.506201 7.329719
v -5.462940 14.068400 3.996749
v -8.659970 10.667700 3.603979
v -7.480550 13.217600 -0.143999
v -6.797360 17.632000 1.265369
v 0.026068 13.349300 1.175909
v 1.761980 15.272300 2.181229
v 2.727270 13.256200 0.530264
v 1.364900 10.914400 1.148089
v 3.928250 11.332500 2.136209
v 4.173660 14.025900 2.774719
v -0.196977 14.176500 3.819409
v -0.442385 11.483100 3.180899
v 1.004000 12.252800 5.425349
v 1.969300 10.236700 3.774389
v 3.705200 12.159700 4.779709
v 2.366370 14.594600 4.807529
v 13.919200 11.397899 -10.975901
v 11.569000 9.366169 -12.603201
v 11.644900 12.814399 -13.238901
v 12.251300 8.876609 -9.198111
v 8.946050 8.734769 -10.362301
v 8.571310 11.168399 -12.859701
v 12.374100 14.455899 -10.226701
v 9.751220 13.824499 -7.985801
v 12.748900 12.022199 -7.729341
v 9.675270 10.376299 -7.350111
v 7.400950 11.792699 -9.613081
v 9.068930 14.314099 -11.390901
v 2.003840 21.411800 -4.552812
v 4.549630 22.668800 -2.180352
v 3.042160 19.327499 -1.677461
v -0.529795 19.531000 -2.620651
v 0.450123 19.625700 0.945955
v 3.589380 21.565001 1.218078
v 1.909330 24.937401 -3.434342
v -1.229920 22.998100 -3.706462
v -0.682710 25.235500 -0.810927
v -2.190170 21.894199 -0.308038
v 0.355617 23.151300 2.064428
v 2.889250 25.032101 0.132264
v -0.363030 2.399010 -1.143420
v -1.261290 2.200930 -0.194404
v -0.714177 2.189560 0.836823
v -1.182490 5.880400 1.388000
v 0.483260 2.349100 1.087270
v 1.318580 2.037190 0.103932
v 0.854202 2.071390 -0.969078
v -0.048278 3.494540 -0.524021
v 0.324427 3.472560 0.458374
v -1.917640 6.392760 1.224180
v -2.254080 6.351120 2.061270
v -1.522440 5.911160 2.125410
v -1.446170 6.784370 1.889120
v -4.147220 12.492800 5.119239
v -4.331940 12.273400 5.423849
v -4.065930 12.472600 5.662039
v 1.581850 12.503700 3.058039
v 1.940160 12.411000 3.185489
v -3.852570 12.596600 5.354949
v 1.739950 12.659000 2.712969
v 2.099980 12.581000 2.842339
vn -0.7072 0.3531 -0.6126
vn -0.5764 0.7945 0.1910
vn 0.1575 0.4199 0.8938
vn 0.7230 -0.3393 0.6018
vn 0.6240 -0.7500 -0.2194
vn 0.6240 -0.7500 -0.2195
vn -0.1249 -0.3938 -0.9107
vn -0.8344 0.1437 -0.5320
vn -0.8797 0.3396 0.3328
vn -0.0428 0.2565 0.9656
vn -0.0428 0.2566 0.9656
vn 0.8608 -0.0989 0.4992
vn 0.8124 -0.3353 -0.4770
vn 0.0893 -0.2433 -0.9658
vn -0.8070 -0.0084 -0.5904
vn -0.8071 -0.0084 -0.5904
vn -0.7961 0.5528 0.2463
vn -0.0738 0.6056 0.7923
vn 0.8270 0.0538 0.5596
vn 0.8087 -0.5353 -0.2440
vn 0.8086 -0.5353 -0.2440
vn 0.0336 -0.5908 -0.8061
vn 0.0337 -0.5908 -0.8061
vn -0.8612 -0.1040 -0.4974
vn -0.8612 -0.1040 -0.4975
vn -0.8787 0.3969 0.2652
vn -0.8787 0.3969 0.2653
vn 0.0383 0.5122 0.8580
vn 0.0383 0.5123 0.8580
vn 0.8632 0.0918 0.4965
vn 0.8632 0.0918 0.4964
vn 0.8629 0.0909 0.4972
vn 0.9037 -0.3409 -0.2591
vn 0.9037 -0.3408 -0.2591
vn -0.0399 -0.4705 -0.8815
vn -0.0399 -0.4704 -0.8815
vn -0.7140 -0.5949 -0.3691
vn -0.9205 0.0222 0.3902
vn -0.9204 0.0222 0.3902
vn -0.1467 0.6697 0.7280
vn -0.1468 0.6697 0.7280
vn 0.6693 0.6403 0.3768
vn 0.6694 0.6403 0.3768
vn 0.9169 -0.0193 -0.3986
vn 0.9169 -0.0194 -0.3986
vn 0.9169 -0.0194 -0.3987
vn 0.1588 -0.6287 -0.7612
vn 0.1589 -0.6287 -0.7612
vn -0.7653 -0.1559 -0.6245
vn -0.9288 -0.1301 0.3471
vn -0.0886 0.0479 0.9949
vn 0.7694 0.1849 0.6114
vn 0.7695 0.1849 0.6114
vn 0.9152 0.1944 -0.3529
vn 0.9153 0.1944 -0.3529
vn -0.0533 -0.0447 -0.9976
vn -0.6868 -0.3404 -0.6422
vn -0.6642 -0.7203 0.2003
vn 0.0463 -0.3593 0.9321
vn 0.6660 0.3603 0.6532
vn 0.6098 0.7729 -0.1755
vn 0.6098 0.7728 -0.1755
vn -0.0870 0.3954 -0.9144
vn -0.0870 0.3953 -0.9144
vn -0.8149 -0.0902 -0.5726
vn -0.8148 -0.0902 -0.5726
vn -0.8648 -0.1952 0.4625
vn -0.8649 -0.1952 0.4625
vn -0.1888 -0.1027 0.9766
vn 0.8376 0.1109 0.5349
vn 0.8376 0.1109 0.5348
vn 0.8952 0.1995 -0.3984
vn 0.1438 0.0925 -0.9853
vn -0.8364 0.2028 -0.5092
vn -0.9082 0.1380 0.3952
vn -0.2077 0.0023 0.9782
vn 0.8190 -0.1328 0.5583
vn 0.8189 -0.1328 0.5583
vn 0.9103 -0.1349 -0.3913
vn 0.1910 0.0206 -0.9814
vn -0.6647 -0.0933 -0.7413
vn -0.9487 -0.1467 0.2802
vn -0.0980 0.0123 0.9951
vn 0.6772 0.1028 0.7286
vn 0.9693 0.1564 -0.1895
vn 0.9693 0.1564 -0.1896
vn 0.0994 0.0379 -0.9943
vn 0.0994 0.0380 -0.9943
vn 0.1886 0.1175 -0.9750
vn 0.1886 0.1174 -0.9750
vn -0.4557 -0.8687 -0.1942
vn -0.2553 -0.0830 0.9633
vn 0.3876 0.9036 0.1822
vn 0.2433 0.2481 -0.9377
vn 0.2433 0.2480 -0.9377
vn -0.4474 -0.8267 -0.3412
vn -0.2710 -0.2251 0.9359
vn 0.4119 0.8461 0.3383
vn -0.1446 0.5650 -0.8123
vn -0.1446 0.5649 -0.8123
vn -0.8398 -0.5010 -0.2092
vn 0.2174 -0.4986 0.8392
vn 0.2173 -0.4986 0.8392
vn 0.8438 0.4461 0.2985
vn 0.8438 0.4461 0.2984
vn -0.7284 0.6634 -0.1713
vn -0.3094 -0.0929 0.9464
vn 0.7759 -0.5994 0.1967
vn 0.3567 0.1565 -0.9210
vn 0.3567 0.1564 -0.9210
vn -0.2130 0.9656 -0.1492
vn -0.2131 0.9656 -0.1492
vn -0.5904 -0.0039 0.8071
vn 0.2499 -0.9540 0.1654
vn 0.6061 0.0113 -0.7953
vn 0.6061 0.0112 -0.7953
vn -0.3604 0.8851 -0.2946
vn -0.6779 -0.0323 0.7344
vn 0.3891 -0.8417 0.3745
vn 0.6970 0.0782 -0.7127
vn -0.7269 0.4474 -0.5210
vn -0.4143 0.2794 0.8662
vn 0.7501 -0.4343 0.4988
vn 0.7501 -0.4344 0.4987
vn 0.4193 -0.2611 -0.8695
vn -0.8970 0.0340 -0.4406
vn -0.8971 0.0340 -0.4406
vn -0.4079 0.2953 0.8640
vn -0.4079 0.2953 0.8639
vn 0.9163 -0.0820 0.3920
vn 0.9163 -0.0819 0.3920
vn 0.3793 -0.2833 -0.8808
vn -0.9301 -0.0731 -0.3601
vn -0.9300 -0.0731 -0.3601
vn -0.3909 0.0320 0.9199
vn 0.9452 0.1170 0.3047
vn 0.9452 0.1171 0.3047
vn 0.4645 0.0084 -0.8855
vn -0.9439 0.2398 -0.2270
vn -0.3319 -0.8181 0.4696
vn 0.9420 -0.2231 0.2507
vn 0.3264 0.8332 -0.4464
vn -0.9212 0.1915 -0.3386
vn -0.2769 -0.9419 0.1902
vn 0.9050 -0.1848 0.3831
vn 0.9051 -0.1848 0.3831
vn 0.2319 0.9587 -0.1647
vn 0.2318 0.9587 -0.1647
vn -0.7077 0.0121 -0.7064
vn -0.4474 -0.7606 0.4705
vn 0.7113 0.0212 0.7026
vn 0.4022 0.8004 -0.4446
vn -0.7539 0.0004 -0.6570
vn -0.7201 -0.0613 0.6912
vn 0.7314 0.0148 0.6818
vn 0.6712 0.0286 -0.7407
vn -0.7336 -0.2481 -0.6327
vn -0.6235 -0.3522 0.6980
vn 0.7013 0.2312 0.6743
vn 0.7014 0.2312 0.6743
vn 0.6469 0.3796 -0.6614
vn 0.9847 0.0920 0.1483
vn 0.0852 -0.9945 0.0605
vn -0.9704 -0.0982 -0.2208
vn -0.0709 0.9886 -0.1332
vn 0.9689 0.1000 0.2265
vn 0.0640 -0.9874 0.1447
vn -0.9582 -0.1047 -0.2661
vn -0.0529 0.9802 -0.1909
vn 0.9753 0.1015 0.1964
vn 0.0093 -0.9152 0.4029
vn 0.0094 -0.9152 0.4029
vn -0.9753 -0.0953 -0.1991
vn 0.0397 0.8921 -0.4501
vn 0.0397 0.8921 -0.4500
vn 0.8666 0.1316 0.4814
vn 0.0533 -0.9704 0.2357
vn -0.8426 -0.0691 -0.5342
vn -0.8426 -0.0691 -0.5341
vn 0.0967 0.9779 -0.1852
vn 0.0967 0.9779 -0.1853
vn 0.6435 0.0375 0.7645
vn 0.0348 -0.9887 -0.1459
vn -0.6101 -0.0115 -0.7922
vn -0.6101 -0.0116 -0.7922
vn -0.1178 0.9883 0.0967
vn -0.1178 0.9883 0.0968
vn 0.1218 -0.2362 0.9640
vn 0.1948 -0.9662 -0.1687
vn -0.1005 -0.0148 -0.9948
vn -0.1867 0.9568 0.2230
vn -0.1868 0.9568 0.2230
vn -0.7422 0.0882 -0.6643
vn -0.7422 0.0882 -0.6644
vn -0.9062 0.0777 0.4156
vn -0.2093 0.1054 0.9721
vn -0.2093 0.1054 0.9722
vn 0.8043 0.0830 0.5884
vn 0.8043 0.0830 0.5883
vn 0.9574 0.0771 -0.2783
vn 0.0931 0.0693 -0.9932
vn -0.3017 0.5335 -0.7902
vn -0.3017 0.5334 -0.7902
vn 0.0060 0.9998 0.0201
vn 0.4544 0.4832 0.7484
vn 0.7264 -0.1612 0.6681
vn 0.4358 -0.8736 -0.2164
vn 0.0269 -0.3899 -0.9205
vn -0.6928 -0.1905 -0.6955
vn -0.4395 -0.8700 0.2236
vn -0.1213 -0.2001 0.9722
vn -0.1213 -0.2001 0.9723
vn 0.2787 0.4988 0.8207
vn 0.1465 0.9886 -0.0335
vn 0.1465 0.9886 -0.0334
vn -0.2768 0.5320 -0.8002
vn -0.8017 0.5190 -0.2964
vn -0.1679 -0.1367 0.9763
vn -0.1678 -0.1368 0.9763
vn -0.1679 -0.1368 0.9763
vn 0.6450 -0.6911 0.3261
vn 0.6449 -0.6912 0.3261
vn 0.6449 -0.6911 0.3261
vn 0.2763 0.0906 -0.9568
vn -0.2934 0.9380 -0.1843
vn -0.1455 0.2702 0.9517
vn 0.4375 -0.8672 0.2379
vn 0.2028 -0.0220 -0.9790
vn 0.2029 -0.0220 -0.9790
vn -0.9535 0.1689 -0.2494
vn -0.9535 0.1690 -0.2494
vn -0.4137 -0.0601 0.9084
vn 0.9302 -0.1354 0.3411
vn 0.4423 0.0676 -0.8943
vn -0.9209 0.1423 -0.3630
vn -0.4428 -0.6457 0.6221
vn 0.9022 0.0375 0.4298
vn 0.2165 0.7664 -0.6048
vn 0.2158 0.7668 -0.6046
vn -0.7714 -0.2004 -0.6040
vn -0.5613 -0.2082 0.8010
vn 0.7481 0.2269 0.6236
vn 0.5719 0.1892 -0.7982
vn 0.5719 0.1891 -0.7982
vn 0.0761 0.8957 0.4380
vn 0.0295 0.8902 0.4547
vn 0.9094 -0.0522 -0.4127
vn -0.6650 0.7360 0.1269
vn -0.3964 0.9133 0.0934
vn 0.9485 0.2882 -0.1313
vn -0.3485 -0.1574 0.9240
vn -0.3484 -0.1574 0.9240
vn -0.7687 -0.5694 -0.2914
vn -0.7687 -0.5694 -0.2913
vn 0.7302 0.5932 0.3389
vn 0.2899 0.1600 -0.9436
vn -0.3440 -0.0314 0.9384
vn -0.5381 -0.8175 -0.2050
vn 0.4954 0.8457 0.1985
vn 0.3015 0.0568 -0.9518
vn 0.4301 0.0707 0.9000
vn 0.5204 -0.5817 0.6252
vn -0.1249 -0.8584 0.4975
vn -0.6140 -0.3771 0.6934
vn -0.2710 0.1971 0.9422
vn 0.6140 0.3771 -0.6934
vn 0.2710 -0.1971 -0.9422
vn -0.4301 -0.0707 -0.9000
vn -0.5204 0.5817 -0.6252
vn 0.1249 0.8584 -0.4975
vn 0.7123 0.5426 0.4451
vn 0.8584 -0.5129 0.0004
vn -0.1857 -0.9607 -0.2062
vn -0.9770 -0.1819 0.1108
vn -0.4221 0.7472 0.5134
vn 0.9770 0.1819 -0.1108
vn 0.4221 -0.7472 -0.5134
vn -0.7123 -0.5426 -0.4451
vn -0.8584 0.5129 -0.0004
vn 0.1857 0.9607 0.2062
vn -0.0469 0.7568 0.6520
vn -0.1366 0.1304 0.9820
vn 0.4407 -0.2698 0.8562
vn 0.8872 0.1091 0.4484
vn 0.5858 0.7436 0.3222
vn -0.8872 -0.1091 -0.4484
vn -0.5858 -0.7436 -0.3222
vn 0.0469 -0.7568 -0.6520
vn 0.1366 -0.1304 -0.9820
vn -0.4407 0.2698 -0.8562
vn -0.5541 0.8182 0.1537
vn -0.6993 -0.1953 0.6877
vn 0.2348 -0.8430 0.4841
vn 0.9573 -0.2297 -0.1758
vn 0.4697 0.7969 -0.3799
vn -0.9573 0.2297 0.1758
vn -0.4697 -0.7969 0.3799
vn 0.5541 -0.8182 -0.1537
vn 0.6993 0.1953 -0.6877
vn -0.2348 0.8430 -0.4841
vn -0.7235 0.6550 0.2180
vn -0.8989 -0.0008 0.4382
vn -0.8919 -0.4332 -0.1295
vn -0.7122 -0.0447 -0.7005
vn -0.6081 0.6278 -0.4858
vn 0.7122 0.0447 0.7005
vn 0.6081 -0.6278 0.4858
vn 0.7235 -0.6550 -0.2180
vn 0.8989 0.0008 -0.4382
vn 0.8919 0.4332 0.1295
vn -0.1108 0.8376 0.5350
vn -0.3946 -0.2235 0.8913
vn -0.3833 -0.9232 -0.0272
vn -0.0925 -0.2946 -0.9511
vn 0.0759 0.7936 -0.6037
vn 0.0925 0.2946 0.9511
vn -0.0759 -0.7936 0.6037
vn 0.1108 -0.8376 -0.5350
vn 0.3946 0.2235 -0.8913
vn 0.3833 0.9232 0.0272
vn -0.1717 0.5737 -0.8009
vn -0.2347 -0.1180 -0.9649
vn 0.3846 -0.4381 -0.8125
vn 0.8305 0.0557 -0.5543
vn 0.4866 0.6810 -0.5471
vn -0.8305 -0.0557 0.5543
vn -0.4866 -0.6810 0.5471
vn 0.1717 -0.5737 0.8009
vn 0.2347 0.1180 0.9649
vn -0.3846 0.4381 0.8125
vn -0.6358 0.7197 -0.2789
vn -0.7378 -0.3994 -0.5442
vn 0.2643 -0.9174 -0.2976
vn 0.9857 -0.1183 0.1202
vn 0.4293 0.8935 0.1318
vn -0.9857 0.1183 -0.1202
vn -0.4293 -0.8935 -0.1318
vn 0.6358 -0.7197 0.2789
vn 0.7378 0.3994 0.5442
vn -0.2643 0.9174 0.2976
vn 0.6480 -0.1519 -0.7463
vn 0.7243 -0.6471 -0.2382
vn 0.0988 -0.9820 -0.1610
vn -0.3639 -0.6938 -0.6215
vn -0.0245 -0.1807 -0.9832
vn 0.3639 0.6938 0.6215
vn 0.0245 0.1807 0.9832
vn -0.6480 0.1519 0.7463
vn -0.7243 0.6471 0.2382
vn -0.0988 0.9820 0.1610
vn 0.7493 0.4882 -0.4474
vn 0.8727 -0.3130 0.3748
vn -0.1393 -0.8550 0.4996
vn -0.8881 -0.3886 -0.2454
vn -0.3389 0.4415 -0.8308
vn 0.8881 0.3886 0.2454
vn 0.3389 -0.4415 0.8308
vn -0.7493 -0.4882 0.4475
vn -0.8727 0.3130 -0.3748
vn 0.1393 0.8550 -0.4996
vn 0.7220 -0.4096 -0.5577
vn 0.1165 -0.7837 -0.6101
vn -0.0688 -0.9966 0.0454
vn 0.4223 -0.7541 0.5029
vn 0.9110 -0.3914 0.1303
vn -0.4223 0.7541 -0.5029
vn -0.9110 0.3914 -0.1303
vn -0.7220 0.4096 0.5576
vn -0.1165 0.7837 0.6101
vn 0.0687 0.9966 -0.0453
vn 0.5869 0.2591 -0.7671
vn -0.3928 -0.3461 -0.8520
vn -0.6925 -0.6906 0.2086
vn 0.1020 -0.2983 0.9490
vn 0.8927 0.2886 0.3460
vn -0.1020 0.2983 -0.9490
vn -0.8927 -0.2886 -0.3460
vn -0.5869 -0.2591 0.7671
vn 0.3928 0.3461 0.8520
vn 0.6925 0.6906 -0.2086
vt 0.175435 0.163566
vt 0.227393 0.163566
vt 0.202202 0.288261
vt 0.150245 0.289632
vt 0.279351 0.163566
vt 0.254160 0.285937
vt 0.331308 0.163566
vt 0.306118 0.289632
vt 0.383266 0.163566
vt 0.358075 0.288261
vt 0.435223 0.163566
vt 0.410033 0.285937
vt 0.487181 0.163566
vt 0.461990 0.289632
vt 0.172788 0.435765
vt 0.120830 0.437733
vt 0.224745 0.434466
vt 0.276703 0.437733
vt 0.328660 0.435765
vt 0.380618 0.434466
vt 0.432576 0.437733
vt 0.144204 0.574706
vt 0.092247 0.576682
vt 0.196162 0.579905
vt 0.248120 0.576682
vt 0.300077 0.574706
vt 0.352035 0.579905
vt 0.403993 0.576682
vt 0.116520 0.717314
vt 0.064563 0.714772
vt 0.168478 0.716962
vt 0.220436 0.714772
vt 0.272393 0.717314
vt 0.324351 0.716962
vt 0.376309 0.714772
vt 0.087492 0.861430
vt 0.035535 0.861160
vt 0.139450 0.865035
vt 0.191408 0.861160
vt 0.243365 0.861430
vt 0.295323 0.865035
vt 0.347280 0.861160
vt 0.061958 0.988661
vt 0.010000 0.990000
vt 0.113915 0.989790
vt 0.165873 0.990000
vt 0.217831 0.988661
vt 0.269788 0.989790
vt 0.321746 0.990000
vt 0.227375 0.163655
vt 0.201632 0.292434
vt 0.149675 0.290455
vt 0.175418 0.163655
vt 0.279333 0.163655
vt 0.253590 0.288954
vt 0.331290 0.163655
vt 0.305548 0.290455
vt 0.383248 0.163655
vt 0.357505 0.292434
vt 0.435206 0.163655
vt 0.409463 0.288954
vt 0.487163 0.163655
vt 0.461421 0.290455
vt 0.173259 0.433000
vt 0.121302 0.437702
vt 0.225217 0.432648
vt 0.277175 0.437702
vt 0.329132 0.433000
vt 0.381090 0.432648
vt 0.433048 0.437702
vt 0.144368 0.572834
vt 0.092410 0.576020
vt 0.196326 0.579962
vt 0.248283 0.576020
vt 0.300241 0.572834
vt 0.352199 0.579962
vt 0.404156 0.576020
vt 0.065625 0.709654
vt 0.117582 0.713252
vt 0.169540 0.711774
vt 0.221498 0.709654
vt 0.273455 0.713252
vt 0.325413 0.711774
vt 0.377370 0.709654
vt 0.521660 0.295987
vt 0.529215 0.333762
vt 0.472124 0.333762
vt 0.464568 0.295987
vt 0.578752 0.295987
vt 0.586307 0.333762
vt 0.635843 0.295987
vt 0.643398 0.333762
vt 0.692935 0.295987
vt 0.700490 0.333762
vt 0.560793 0.489959
vt 0.569502 0.534311
vt 0.512411 0.531188
vt 0.503702 0.489940
vt 0.617885 0.489940
vt 0.626594 0.531188
vt 0.674977 0.489959
vt 0.683685 0.534311
vt 0.732068 0.489940
vt 0.740777 0.531188
vt 0.578416 0.577857
vt 0.521325 0.576322
vt 0.635508 0.576322
vt 0.692599 0.577857
vt 0.749691 0.576322
vt 0.452228 0.586489
vt 0.458819 0.619443
vt 0.412457 0.619443
vt 0.405866 0.586489
vt 0.498591 0.586489
vt 0.505182 0.619443
vt 0.544953 0.586489
vt 0.551544 0.619443
vt 0.591316 0.586489
vt 0.597907 0.619443
vt 0.425806 0.686190
vt 0.472169 0.686190
vt 0.482260 0.736613
vt 0.435897 0.733184
vt 0.518531 0.686190
vt 0.528622 0.733184
vt 0.564894 0.686190
vt 0.574985 0.736613
vt 0.611256 0.686190
vt 0.621347 0.733184
vt 0.490959 0.777583
vt 0.444596 0.779163
vt 0.537321 0.779163
vt 0.583684 0.777583
vt 0.630046 0.779163
vt 0.500113 0.824583
vt 0.453751 0.823776
vt 0.546476 0.823776
vt 0.592838 0.824583
vt 0.639201 0.823776
vt 0.510271 0.875009
vt 0.463908 0.879329
vt 0.556633 0.879329
vt 0.602996 0.875009
vt 0.649358 0.879329
vt 0.520698 0.924894
vt 0.474336 0.930396
vt 0.567061 0.930396
vt 0.613423 0.924894
vt 0.659786 0.930396
vt 0.425483 0.684572
vt 0.471845 0.684572
vt 0.482139 0.735481
vt 0.435777 0.733512
vt 0.518207 0.684572
vt 0.528502 0.733512
vt 0.564570 0.684572
vt 0.574864 0.735481
vt 0.610932 0.684572
vt 0.621227 0.733512
vt 0.491103 0.778269
vt 0.444741 0.779574
vt 0.537466 0.779574
vt 0.583828 0.778269
vt 0.630191 0.779574
vt 0.500215 0.824696
vt 0.453852 0.824765
vt 0.546577 0.824765
vt 0.592940 0.824696
vt 0.639302 0.824765
vt 0.510036 0.874687
vt 0.463673 0.876745
vt 0.556398 0.876745
vt 0.602761 0.874687
vt 0.649123 0.876745
vt 0.474026 0.929901
vt 0.520388 0.922535
vt 0.566751 0.929901
vt 0.613113 0.922535
vt 0.659476 0.929901
vt 0.521713 0.023547
vt 0.573561 0.023547
vt 0.565551 0.063599
vt 0.513703 0.063599
vt 0.625410 0.023547
vt 0.617399 0.063599
vt 0.677258 0.023547
vt 0.669248 0.063599
vt 0.729106 0.023547
vt 0.721096 0.063599
vt 0.557452 0.103931
vt 0.505604 0.101224
vt 0.609301 0.101224
vt 0.661149 0.103931
vt 0.712997 0.101224
vt 0.549303 0.138767
vt 0.497455 0.144623
vt 0.601152 0.144623
vt 0.653000 0.138767
vt 0.704849 0.144623
vt 0.540382 0.187948
vt 0.488534 0.189567
vt 0.592230 0.189567
vt 0.644079 0.187948
vt 0.695927 0.189567
vt 0.531090 0.238910
vt 0.479241 0.230896
vt 0.582938 0.230896
vt 0.634786 0.238910
vt 0.686635 0.230896
vt 0.520932 0.289510
vt 0.469084 0.283809
vt 0.572781 0.283809
vt 0.624629 0.289510
vt 0.676477 0.283809
vt 0.206149 0.010000
vt 0.258644 0.010000
vt 0.241328 0.102556
vt 0.187637 0.102556
vt 0.310384 0.010000
vt 0.289964 0.102556
vt 0.361159 0.010000
vt 0.342201 0.102556
vt 0.412970 0.010000
vt 0.396386 0.102556
vt 0.465546 0.010000
vt 0.445489 0.102556
vt 0.517894 0.010000
vt 0.499383 0.102556
vt 0.234079 0.130135
vt 0.287171 0.124463
vt 0.390700 0.126395
vt 0.442621 0.126578
vt 0.465536 0.643919
vt 0.417192 0.642528
vt 0.511448 0.642381
vt 0.554412 0.643808
vt 0.602642 0.642528
vt 0.467727 0.663983
vt 0.531276 0.982187
vt 0.484913 0.986216
vt 0.577638 0.981110
vt 0.624001 0.985614
vt 0.670363 0.986216
vt 0.560168 0.662561
vt 0.530881 0.979097
vt 0.484518 0.983842
vt 0.577243 0.982917
vt 0.623606 0.984496
vt 0.669968 0.983842
vt 0.170651 0.081439
vt 0.151488 0.062277
vt 0.170651 0.062277
vt 0.189813 0.062277
vt 0.170651 0.043114
vt 0.166540 0.017407
vt 0.188605 0.010000
vt 0.181276 0.024736
vt 0.173947 0.039471
vt 0.196012 0.032065
vt 0.601738 0.408093
vt 0.658830 0.412179
vt 0.544646 0.412179
vt 0.715921 0.408093
vt 0.487555 0.408093
vt 0.088423 0.846225
vt 0.010000 0.846225
vt 0.049211 0.990000
vt 0.166845 0.846225
vt 0.127634 0.990000
vt 0.245268 0.846225
vt 0.206057 0.990000
vt 0.323691 0.846225
vt 0.284480 0.990000
vt 0.402114 0.846225
vt 0.362902 0.990000
vt 0.049211 0.702450
vt 0.127634 0.702450
vt 0.088423 0.558675
vt 0.206057 0.702450
vt 0.166845 0.558675
vt 0.284480 0.702450
vt 0.245268 0.558675
vt 0.362902 0.702450
vt 0.323691 0.558675
vt 0.441325 0.702450
vt 0.402114 0.558675
vt 0.109188 0.373689
vt 0.059594 0.555533
vt 0.010000 0.373689
vt 0.208375 0.373689
vt 0.158782 0.555533
vt 0.307564 0.373689
vt 0.257969 0.555533
vt 0.406751 0.373689
vt 0.357157 0.555533
vt 0.505939 0.373689
vt 0.456345 0.555533
vt 0.059594 0.191844
vt 0.109188 0.010000
vt 0.158782 0.191844
vt 0.208375 0.010000
vt 0.257969 0.191844
vt 0.307564 0.010000
vt 0.357157 0.191844
vt 0.406751 0.010000
vt 0.456345 0.191844
vt 0.505939 0.010000
vt 0.555533 0.191844
vt 0.464198 0.872173
vt 0.400837 0.872173
vt 0.432518 0.988334
vt 0.527559 0.872173
vt 0.495878 0.988334
vt 0.590920 0.872173
vt 0.559239 0.988334
vt 0.654281 0.872173
vt 0.622601 0.988334
vt 0.717642 0.872173
vt 0.685962 0.988334
vt 0.432518 0.756011
vt 0.495878 0.756011
vt 0.464198 0.639849
vt 0.559239 0.756011
vt 0.527559 0.639849
vt 0.622601 0.756011
vt 0.590920 0.639849
vt 0.685962 0.756011
vt 0.654281 0.639849
vt 0.749323 0.756011
vt 0.717642 0.639849
vt 0.748090 0.583761
vt 0.710500 0.583761
vt 0.729295 0.652675
vt 0.785679 0.583761
vt 0.766884 0.652675
vt 0.823268 0.583761
vt 0.804473 0.652675
vt 0.860858 0.583761
vt 0.842063 0.652675
vt 0.898447 0.583761
vt 0.879652 0.652675
vt 0.729295 0.514847
vt 0.766884 0.514847
vt 0.748090 0.445934
vt 0.804473 0.514847
vt 0.785679 0.445934
vt 0.842063 0.514847
vt 0.823268 0.445934
vt 0.879652 0.514847
vt 0.860858 0.445934
vt 0.917241 0.514847
vt 0.898447 0.445934
vt 0.588077 0.268129
vt 0.564357 0.355103
vt 0.540636 0.268129
vt 0.635517 0.268129
vt 0.611797 0.355103
vt 0.682958 0.268129
vt 0.659238 0.355103
vt 0.730399 0.268129
vt 0.706678 0.355103
vt 0.777839 0.268129
vt 0.754119 0.355103
vt 0.564357 0.181155
vt 0.588077 0.094180
vt 0.611797 0.181155
vt 0.635517 0.094180
vt 0.659238 0.181155
vt 0.682958 0.094180
vt 0.706678 0.181155
vt 0.730399 0.094180
vt 0.754119 0.181155
vt 0.777839 0.094180
vt 0.801559 0.181155
vt 0.515525 0.543765
vt 0.465475 0.543765
vt 0.490500 0.635522
vt 0.565574 0.543765
vt 0.540550 0.635522
vt 0.615624 0.543765
vt 0.590599 0.635522
vt 0.665673 0.543765
vt 0.640649 0.635522
vt 0.715723 0.543765
vt 0.690698 0.635522
vt 0.490500 0.452007
vt 0.540550 0.452007
vt 0.515525 0.360250
vt 0.590599 0.452007
vt 0.565574 0.360250
vt 0.640649 0.452007
vt 0.615624 0.360250
vt 0.690698 0.452007
vt 0.665673 0.360250
vt 0.740748 0.452007
vt 0.715723 0.360250
s 1
usemtl Bark
f 7/1/1 8/2/1 14/3/1 13/4/1
f 9/5/2 15/6/2 14/3/2 8/2/2
f 10/7/3 16/8/3 15/6/3 9/5/3
f 11/9/4 17/10/4 16/8/4 10/7/4
f 11/9/5 12/11/6 18/12/5 17/10/5
f 12/11/7 7/13/7 13/14/7 18/12/7
f 13/4/8 14/3/8 20/15/8 19/16/8
f 21/17/9 20/15/9 14/3/9 15/6/9
f 16/8/10 22/18/11 21/17/11 15/6/10
f 16/8/12 17/10/12 23/19/12 22/18/12
f 17/10/13 18/12/13 24/20/13 23/19/13
f 18/12/14 13/14/14 19/21/14 24/20/14
f 20/15/15 26/22/16 25/23/15 19/16/15
f 21/17/17 27/24/17 26/22/17 20/15/17
f 21/17/18 22/18/18 28/25/18 27/24/18
f 22/18/19 23/19/19 29/26/19 28/25/19
f 24/20/20 30/27/20 29/26/21 23/19/20
f 24/20/22 19/21/23 25/28/23 30/27/23
f 26/22/24 32/29/25 31/30/25 25/23/25
f 26/22/26 27/24/26 33/31/27 32/29/26
f 28/25/28 34/32/29 33/31/28 27/24/28
f 29/26/30 35/33/31 34/32/30 28/25/32
f 29/26/33 30/27/33 36/34/33 35/33/34
f 30/27/35 25/28/35 31/35/36 36/34/35
f 31/30/37 32/29/37 38/36/37 37/37/37
f 33/31/38 39/38/38 38/36/39 32/29/38
f 34/32/40 40/39/41 39/38/40 33/31/41
f 35/33/42 41/40/43 40/39/43 34/32/42
f 36/34/44 42/41/45 41/40/46 35/33/44
f 36/34/47 31/35/48 37/42/48 42/41/47
f 37/37/49 38/36/49 44/43/49 43/44/49
f 38/36/50 39/38/50 45/45/50 44/43/50
f 39/38/51 40/39/51 46/46/51 45/45/51
f 40/39/52 41/40/52 47/47/52 46/46/53
f 42/41/54 48/48/54 47/47/55 41/40/54
f 37/42/56 43/49/56 48/48/56 42/41/56
f 50/50/57 56/51/57 55/52/57 49/53/57
f 50/50/58 51/54/58 57/55/58 56/51/58
f 51/54/59 52/56/59 58/57/59 57/55/59
f 52/56/60 53/58/60 59/59/60 58/57/60
f 54/60/61 60/61/61 59/59/61 53/58/62
f 49/62/63 55/63/63 60/61/63 54/60/64
f 62/64/65 61/65/65 55/52/65 56/51/66
f 57/55/67 63/66/68 62/64/67 56/51/67
f 63/66/69 57/55/69 58/57/69 64/67/69
f 64/67/70 58/57/70 59/59/70 65/68/71
f 60/61/72 66/69/72 65/68/72 59/59/72
f 55/63/73 61/70/73 66/69/73 60/61/73
f 62/64/74 68/71/74 67/72/74 61/65/74
f 63/66/75 69/73/75 68/71/75 62/64/75
f 63/66/76 64/67/76 70/74/76 69/73/76
f 64/67/77 65/68/77 71/75/77 70/74/78
f 66/69/79 72/76/79 71/75/79 65/68/79
f 66/69/80 61/70/80 67/77/80 72/76/80
f 73/78/81 67/72/81 68/71/81 74/79/81
f 68/71/82 69/73/82 75/80/82 74/79/82
f 70/74/83 76/81/83 75/80/83 69/73/83
f 77/82/84 76/81/84 70/74/84 71/75/84
f 71/75/85 72/76/85 78/83/85 77/82/86
f 72/76/87 67/77/87 73/84/88 78/83/88
f 82/85/89 81/86/90 79/87/89 80/88/90
f 82/85/91 84/89/91 83/90/91 81/86/91
f 84/89/92 86/91/92 85/92/92 83/90/92
f 80/93/93 79/94/93 85/92/93 86/91/93
f 92/95/94 96/96/94 95/97/95 91/98/94
f 92/95/96 93/99/96 97/100/96 96/96/96
f 94/101/97 98/102/97 97/100/97 93/99/97
f 91/103/98 95/104/98 98/102/98 94/101/98
f 96/96/99 100/105/100 99/106/99 95/97/99
f 96/96/101 97/100/101 101/107/101 100/105/101
f 97/100/102 98/102/103 102/108/102 101/107/103
f 95/104/104 99/109/104 102/108/105 98/102/104
f 106/110/106 105/111/106 103/112/106 104/113/106
f 108/114/107 107/115/107 105/111/107 106/110/107
f 108/114/108 110/116/108 109/117/108 107/115/108
f 110/116/109 104/118/110 103/119/109 109/117/110
f 111/120/111 112/121/112 116/122/111 115/123/112
f 112/121/113 113/124/113 117/125/113 116/122/113
f 114/126/114 118/127/114 117/125/114 113/124/114
f 114/126/115 111/128/116 115/129/115 118/127/116
f 115/123/117 116/122/117 120/130/117 119/131/117
f 117/125/118 121/132/118 120/130/118 116/122/118
f 117/125/119 118/127/119 122/133/119 121/132/119
f 118/127/120 115/129/120 119/134/120 122/133/120
f 124/135/121 123/136/121 119/131/121 120/130/121
f 125/137/122 124/135/122 120/130/122 121/132/122
f 125/137/123 121/132/124 122/133/124 126/138/124
f 126/138/125 122/133/125 119/134/125 123/139/125
f 123/136/126 124/135/126 128/140/126 127/141/127
f 125/137/128 129/142/129 128/140/129 124/135/128
f 129/142/130 125/137/131 126/138/130 130/143/131
f 127/144/132 130/143/132 126/138/132 123/139/132
f 127/141/133 128/140/134 132/145/133 131/146/134
f 129/142/135 133/147/135 132/145/135 128/140/135
f 130/143/136 134/148/136 133/147/137 129/142/136
f 127/144/138 131/149/138 134/148/138 130/143/138
f 135/150/139 136/151/139 140/152/139 139/153/139
f 136/151/140 137/154/140 141/155/140 140/152/140
f 138/156/141 142/157/141 141/155/141 137/154/141
f 138/156/142 135/158/142 139/159/142 142/157/142
f 139/153/143 140/152/143 144/160/143 143/161/143
f 141/155/144 145/162/144 144/160/144 140/152/144
f 141/155/145 142/157/146 146/163/146 145/162/145
f 142/157/147 139/159/148 143/164/147 146/163/148
f 144/160/149 148/165/149 147/166/149 143/161/149
f 145/162/150 149/167/150 148/165/150 144/160/150
f 145/162/151 146/163/151 150/168/151 149/167/151
f 146/163/152 143/164/152 147/169/152 150/168/152
f 152/170/153 151/171/153 147/166/153 148/165/153
f 153/172/154 152/170/154 148/165/154 149/167/154
f 153/172/155 149/167/155 150/168/155 154/173/155
f 147/169/156 151/174/156 154/173/156 150/168/156
f 155/175/157 151/171/157 152/170/157 156/176/157
f 153/172/158 157/177/158 156/176/158 152/170/158
f 153/172/159 154/173/160 158/178/160 157/177/159
f 151/174/161 155/179/161 158/178/161 154/173/161
f 160/180/162 162/181/162 161/182/162 159/183/162
f 164/184/163 163/185/163 161/182/163 162/181/163
f 166/186/164 165/187/164 163/185/164 164/184/164
f 166/186/165 160/188/165 159/189/165 165/187/165
f 159/183/166 161/182/166 168/190/166 167/191/166
f 161/182/167 163/185/167 169/192/167 168/190/167
f 165/187/168 170/193/168 169/192/168 163/185/168
f 165/187/169 159/189/169 167/194/169 170/193/169
f 167/191/170 168/190/170 172/195/170 171/196/170
f 169/192/171 173/197/172 172/195/172 168/190/172
f 169/192/173 170/193/173 174/198/173 173/197/173
f 167/194/174 171/199/175 174/198/174 170/193/175
f 172/195/176 176/200/176 175/201/176 171/196/176
f 173/197/177 177/202/177 176/200/177 172/195/177
f 173/197/178 174/198/179 178/203/179 177/202/179
f 178/203/180 174/198/180 171/199/180 175/204/181
f 176/200/182 180/205/182 179/206/182 175/201/182
f 180/205/183 176/200/183 177/202/183 181/207/183
f 178/203/184 182/208/184 181/207/185 177/202/184
f 178/203/186 175/204/187 179/209/186 182/208/186
f 180/205/188 184/210/188 183/211/188 179/206/188
f 185/212/189 184/210/189 180/205/189 181/207/189
f 181/207/190 182/208/190 186/213/190 185/212/190
f 182/208/191 179/209/191 183/214/192 186/213/191
f 1/215/193 2/216/193 262/217/193 261/218/194
f 2/216/195 3/219/195 263/220/195 262/217/195
f 4/221/196 265/222/196 263/220/197 3/219/196
f 4/221/198 5/223/198 266/224/199 265/222/198
f 6/225/200 267/226/200 266/224/200 5/223/200
f 1/227/201 261/228/201 267/226/201 6/225/201
f 261/218/202 268/229/202 8/2/202 7/1/203
f 269/230/204 9/5/204 8/2/204 268/229/204
f 265/222/205 10/7/205 9/5/205 269/230/205
f 265/222/206 266/224/206 11/9/206 10/7/206
f 266/224/207 267/226/207 12/11/207 11/9/207
f 261/228/208 7/13/208 12/11/208 267/226/208
f 261/218/209 262/217/209 50/50/209 49/53/209
f 263/220/210 51/54/210 50/50/210 262/217/210
f 52/56/211 51/54/212 263/220/211 265/222/211
f 265/222/213 269/231/213 53/58/213 52/56/213
f 268/232/214 54/60/215 53/58/215 269/231/214
f 261/228/216 49/62/216 54/60/216 268/232/216
f 271/233/217 270/234/217 103/112/217 105/111/217
f 272/235/218 271/233/219 105/111/220 107/115/219
f 264/236/221 272/235/222 107/115/222 109/117/223
f 264/236/224 109/117/224 103/119/224 270/237/224
f 111/120/225 270/234/225 273/238/225 112/121/225
f 272/235/226 113/124/226 112/121/226 273/238/226
f 272/235/227 264/236/227 114/126/227 113/124/227
f 270/237/228 111/128/229 114/126/228 264/236/229
f 131/146/230 132/145/230 277/239/231 280/240/231
f 132/145/232 133/147/232 278/241/232 277/239/232
f 134/148/233 281/242/233 278/241/233 133/147/233
f 134/148/234 131/149/234 280/243/234 281/242/234
f 270/234/235 271/233/235 136/151/235 135/150/235
f 272/235/236 137/154/236 136/151/236 271/233/236
f 272/235/237 273/244/237 138/156/237 137/154/237
f 270/237/238 135/158/238 138/156/238 273/244/239
f 156/176/240 275/245/240 274/246/240 155/175/240
f 275/245/241 156/176/241 157/177/241 276/247/241
f 158/178/242 279/248/242 276/247/242 157/177/242
f 279/248/243 158/178/243 155/179/244 274/249/243
f 277/250/245 278/251/245 187/252/245 280/253/245
f 278/251/246 281/254/246 280/253/246
f 278/251/247 280/253/247 187/252/247
f 275/255/248 276/256/248 188/257/248 274/258/248
f 276/256/249 279/259/249 274/258/249
f 276/256/250 274/258/250 188/257/250
f 93/99/251 89/260/252 90/261/251 94/101/251
f 88/262/253 89/260/254 93/99/254 92/95/253
f 91/103/255 94/101/255 90/261/255 87/263/255
f 88/262/256 92/95/256 91/98/256 87/264/256
f 83/90/257 85/92/257 90/261/257 89/260/257
f 83/90/258 89/260/258 88/262/258 81/86/258
f 79/94/259 87/263/259 90/261/259 85/92/259
f 79/87/260 81/86/260 88/262/260 87/264/260
usemtl Tree
f 189/265/261 190/266/261 191/267/261
f 192/268/262 189/265/262 191/269/262
f 193/270/263 192/268/263 191/271/263
f 194/272/264 193/270/264 191/273/264
f 190/274/265 194/272/265 191/275/265
f 195/276/266 196/277/266 197/278/266
f 196/277/267 198/279/267 197/280/267
f 198/279/268 199/281/268 197/282/268
f 199/281/269 200/283/269 197/284/269
f 200/283/270 195/285/270 197/286/270
f 189/265/271 195/276/271 190/266/271
f 192/268/272 196/277/272 189/265/272
f 193/270/273 198/279/273 192/268/273
f 194/272/274 199/281/274 193/270/274
f 190/274/275 200/283/275 194/272/275
f 195/276/276 189/265/276 196/277/276
f 196/277/277 192/268/277 198/279/277
f 198/279/278 193/270/278 199/281/278
f 199/281/279 194/272/279 200/283/279
f 200/283/280 190/274/280 195/285/280
f 201/287/281 202/288/281 203/289/281
f 204/290/282 202/291/282 201/287/282
f 205/292/283 202/293/283 204/290/283
f 206/294/284 202/295/284 205/292/284
f 203/296/285 202/297/285 206/294/285
f 207/298/286 208/299/286 209/300/286
f 209/300/287 208/301/287 210/302/287
f 210/302/288 208/303/288 211/304/288
f 211/304/289 208/305/289 212/306/289
f 212/306/290 208/307/290 207/308/290
f 201/287/291 203/289/291 207/298/291
f 204/290/292 201/287/292 209/300/292
f 205/292/293 204/290/293 210/302/293
f 206/294/294 205/292/294 211/304/294
f 203/296/295 206/294/295 212/306/295
f 207/298/296 209/300/296 201/287/296
f 209/300/297 210/302/297 204/290/297
f 210/302/298 211/304/298 205/292/298
f 211/304/299 212/306/299 206/294/299
f 212/306/300 207/308/300 203/296/300
f 213/309/301 214/310/301 215/311/301
f 216/312/302 213/309/302 215/313/302
f 217/314/303 216/312/303 215/315/303
f 218/316/304 217/314/304 215/317/304
f 214/318/305 218/316/305 215/319/305
f 219/320/306 220/321/306 221/322/306
f 220/321/307 222/323/307 221/324/307
f 222/323/308 223/325/308 221/326/308
f 223/325/309 224/327/309 221/328/309
f 224/327/310 219/329/310 221/330/310
f 213/309/311 219/320/311 214/310/311
f 216/312/312 220/321/312 213/309/312
f 217/314/313 222/323/313 216/312/313
f 218/316/314 223/325/314 217/314/314
f 214/318/315 224/327/315 218/316/315
f 219/320/316 213/309/316 220/321/316
f 220/321/317 216/312/317 222/323/317
f 222/323/318 217/314/318 223/325/318
f 223/325/319 218/316/319 224/327/319
f 224/327/320 214/318/320 219/329/320
f 225/331/321 226/332/321 227/333/321
f 228/334/322 225/331/322 227/335/322
f 229/336/323 228/334/323 227/337/323
f 230/338/324 229/336/324 227/339/324
f 226/340/325 230/338/325 227/341/325
f 231/342/326 232/343/326 233/344/326
f 232/343/327 234/345/327 233/346/327
f 234/345/328 235/347/328 233/348/328
f 235/347/329 236/349/329 233/350/329
f 236/349/330 231/351/330 233/352/330
f 225/331/331 231/342/331 226/332/331
f 228/334/332 232/343/332 225/331/332
f 229/336/333 234/345/333 228/334/333
f 230/338/334 235/347/334 229/336/334
f 226/340/335 236/349/335 230/338/335
f 231/342/336 225/331/336 232/343/336
f 232/343/337 228/334/337 234/345/337
f 234/345/338 229/336/338 235/347/338
f 235/347/339 230/338/339 236/349/339
f 236/349/340 226/340/340 231/351/340
f 237/353/341 238/354/341 239/355/341
f 240/356/342 238/357/342 237/353/342
f 241/358/343 238/359/343 240/356/343
f 242/360/344 238/361/344 241/358/344
f 239/362/345 238/363/345 242/360/345
f 243/364/346 244/365/346 245/366/346
f 245/366/347 244/367/347 246/368/347
f 246/368/348 244/369/348 247/370/348
f 247/370/349 244/371/349 248/372/349
f 248/372/350 244/373/350 243/374/350
f 237/353/351 239/355/351 243/364/351
f 240/356/352 237/353/352 245/366/352
f 241/358/353 240/356/353 246/368/353
f 242/360/354 241/358/354 247/370/354
f 239/362/355 242/360/355 248/372/355
f 243/364/356 245/366/356 237/353/356
f 245/366/357 246/368/357 240/356/357
f 246/368/358 247/370/358 241/358/358
f 247/370/359 248/372/359 242/360/359
f 248/372/360 243/374/360 239/362/360
f 249/375/361 250/376/361 251/377/361
f 252/378/362 249/375/362 251/379/362
f 253/380/363 252/378/363 251/381/363
f 254/382/364 253/380/364 251/383/364
f 250/384/365 254/382/365 251/385/365
f 255/386/366 256/387/366 257/388/366
f 256/387/367 258/389/367 257/390/367
f 258/389/368 259/391/368 257/392/368
f 259/391/369 260/393/369 257/394/369
f 260/393/370 255/395/370 257/396/370
f 249/375/371 255/386/371 250/376/371
f 252/378/372 256/387/372 249/375/372
f 253/380/373 258/389/373 252/378/373
f 254/382/374 259/391/374 253/380/374
f 250/384/375 260/393/375 254/382/375
f 255/386/376 249/375/376 256/387/376
f 256/387/377 252/378/377 258/389/377
f 258/389/378 253/380/378 259/391/378
f 259/391/379 254/382/379 260/393/379
f 260/393/380 250/384/380 255/395/380
